<svg width="28" height="28" viewBox="0 0 28 28" fill="none" xmlns="http://www.w3.org/2000/svg">
<rect width="28" height="28" rx="4" fill="#FFDFE2"/>
<path d="M8.85714 20.2222C8.85714 21.2 9.62857 22 10.5714 22H17.4286C18.3714 22 19.1429 21.2 19.1429 20.2222V11.3333C19.1429 10.3556 18.3714 9.55556 17.4286 9.55556H10.5714C9.62857 9.55556 8.85714 10.3556 8.85714 11.3333V20.2222ZM11.4286 11.3333H16.5714C17.0429 11.3333 17.4286 11.7333 17.4286 12.2222V19.3333C17.4286 19.8222 17.0429 20.2222 16.5714 20.2222H11.4286C10.9571 20.2222 10.5714 19.8222 10.5714 19.3333V12.2222C10.5714 11.7333 10.9571 11.3333 11.4286 11.3333ZM17 6.88889L16.3914 6.25778C16.2371 6.09778 16.0143 6 15.7914 6H12.2086C11.9857 6 11.7629 6.09778 11.6086 6.25778L11 6.88889H8.85714C8.38571 6.88889 8 7.28889 8 7.77778C8 8.26667 8.38571 8.66667 8.85714 8.66667H19.1429C19.6143 8.66667 20 8.26667 20 7.77778C20 7.28889 19.6143 6.88889 19.1429 6.88889H17Z" fill="#EE3B4C"/>
</svg>
