<svg width="28" height="28" viewBox="0 0 28 28" fill="none" xmlns="http://www.w3.org/2000/svg">
<rect width="28" height="28" rx="14" fill="#4A6CFD"/>
<path d="M19.6 22H8.4C7.63 22 7 21.3455 7 20.5456C7 19.7457 7.63 19.0912 8.4 19.0912H19.6C20.37 19.0912 21 19.7457 21 20.5456C21 21.3455 20.37 22 19.6 22ZM14.742 8.32155L17.367 11.0485L11.228 17.426C11.102 17.5641 10.92 17.6369 10.738 17.6369H9.1C8.715 17.6369 8.4 17.3096 8.4 16.9097V15.208C8.4 15.0117 8.477 14.8299 8.603 14.6917L14.742 8.32155ZM18.116 10.2704L15.491 7.54346L16.772 6.2127C17.045 5.9291 17.486 5.9291 17.759 6.2127L19.397 7.91433C19.67 8.19793 19.67 8.65606 19.397 8.93967L18.116 10.2704Z" fill="white"/>
</svg>
