<svg width="33" height="35" viewBox="0 0 33 35" fill="none" xmlns="http://www.w3.org/2000/svg">
<g clip-path="url(#clip0_3256_27)">
<path d="M9.15998 3.16588C9.12259 3.09373 9.09978 3.01493 9.09285 2.93397C9.08592 2.85301 9.09502 2.77147 9.11961 2.69403C9.1442 2.61658 9.18381 2.54473 9.23618 2.4826C9.28854 2.42047 9.35264 2.36926 9.4248 2.3319C11.6391 1.20591 14.0987 0.648681 16.582 0.710438C19.0654 0.772195 21.4943 1.451 23.6499 2.68566C23.7206 2.72632 23.7825 2.78057 23.8321 2.8453C23.8818 2.91002 23.9181 2.98393 23.939 3.06276C23.9599 3.14159 23.9651 3.22379 23.9541 3.30461C23.943 3.38542 23.9162 3.46326 23.8749 3.53363L16.7538 15.7549C16.6995 15.8485 16.6215 15.9262 16.5277 15.9801C16.4338 16.034 16.3275 16.0623 16.2192 16.0621H16.2035C16.0927 16.0592 15.9846 16.0266 15.8906 15.9678C15.7966 15.909 15.7201 15.8261 15.6689 15.7277L9.15998 3.16588ZM15.8372 19.3215V19.3202L9.32806 6.75843C9.25247 6.613 9.1224 6.50339 8.96627 6.45351C8.81013 6.40364 8.64061 6.41757 8.49471 6.49225C6.75994 7.38175 5.21791 8.6051 3.95713 10.0921C2.69636 11.579 1.74165 13.3004 1.14782 15.1572C0.55398 17.0141 0.332703 18.97 0.496685 20.9126C0.660667 22.8552 1.20668 24.7463 2.10338 26.4774C3.00009 28.2085 4.22983 29.7454 5.72203 31C7.21423 32.2546 8.93951 33.2021 10.7988 33.7882C12.6582 34.3743 14.615 34.5875 16.5569 34.4154C18.4988 34.2434 20.3876 33.6895 22.1149 32.7856C22.26 32.7096 22.3692 32.5794 22.4186 32.4232C22.468 32.2671 22.4536 32.0977 22.3786 31.9521L15.8372 19.3215ZM23.4673 31.195L23.5168 31.2941C23.5916 31.4401 23.7205 31.5512 23.876 31.6037C23.9398 31.6249 24.0072 31.6333 24.0742 31.6285C24.1722 31.6258 24.2688 31.6048 24.3591 31.5666C24.5846 31.4548 24.8037 31.3308 25.0156 31.195C25.6456 30.8295 26.2461 30.4153 26.8116 29.9563H22.8232L23.4673 31.195ZM22.1791 28.7177H28.1617C28.5464 28.3312 28.9024 27.9172 29.227 27.479H21.535L22.1791 28.7177ZM20.9033 26.2404H30.1064C30.3601 25.8427 30.5877 25.429 30.7876 25.0018H20.2592L20.9033 26.2404ZM19.6151 23.7631H31.3326C31.497 23.3588 31.6376 22.9452 31.7538 22.5245H18.971L19.6151 23.7631ZM18.3269 21.2858H32.0634C32.1378 20.8771 32.1997 20.4683 32.2369 20.0472H17.6952L18.3269 21.2858ZM24.966 5.62941C24.8965 5.58618 24.8185 5.55829 24.7374 5.54761C24.6562 5.53693 24.5737 5.5437 24.4953 5.56748C24.4151 5.5858 24.3396 5.62059 24.2735 5.66962C24.2074 5.71866 24.1522 5.78089 24.1114 5.85237L23.7769 6.42214H26.1675C25.7815 6.1366 25.3804 5.87198 24.966 5.62941ZM27.6663 7.66078H23.0585L22.3401 8.89942H28.843C28.4765 8.46281 28.0835 8.04915 27.6663 7.66078ZM29.772 10.1381H21.6093L20.8909 11.3767H30.5275C30.304 10.9472 30.0516 10.5333 29.772 10.1381ZM31.1221 12.6153H20.1725L19.4541 13.854H31.6051C31.4679 13.4322 31.3066 13.0187 31.1221 12.6153ZM31.952 15.0926H18.7233L18.0049 16.3313H32.1749C32.1257 15.9143 32.0513 15.5006 31.952 15.0926ZM32.2988 17.5699H17.2865L16.9892 18.0778C16.9355 18.1672 16.9061 18.2691 16.904 18.3734C16.9018 18.4777 16.9269 18.5807 16.9768 18.6723L17.0511 18.8086H32.3236C32.3359 18.6847 32.3359 18.5484 32.3359 18.4246C32.3359 18.1397 32.3236 17.8548 32.2988 17.5699Z" fill="#777777"/>
<path d="M8.87537 5.88004C8.64832 5.44981 8.11394 5.28302 7.69711 5.5338C4.39724 7.51916 1.93185 10.6551 0.788437 14.3539C-0.441932 18.3341 -0.0408055 22.6399 1.90357 26.3243C3.84795 30.0087 7.17631 32.7698 11.1564 34.0002C14.8553 35.1436 18.8354 34.8779 22.3367 33.2741C22.7789 33.0715 22.9428 32.5363 22.7157 32.106L15.7956 18.993L8.87537 5.88004Z" fill="#777777"/>
</g>
<defs>
<clipPath id="clip0_3256_27">
<rect width="32.745" height="34.8351" fill="white" transform="translate(-0.191162 0.153809)"/>
</clipPath>
</defs>
</svg>

